<?xml version="1.0" encoding="utf-8"?>
<!-- Generator: Adobe Illustrator 27.5.0, SVG Export Plug-In . SVG Version: 6.00 Build 0)  -->
<svg version="1.1" id="Layer_1" xmlns="http://www.w3.org/2000/svg" xmlns:xlink="http://www.w3.org/1999/xlink" x="0px" y="0px"
	 viewBox="0 0 3000 3000" style="enable-background:new 0 0 3000 3000;" xml:space="preserve">
<rect style="opacity:0.26;fill:#29A9E1;" width="3000" height="3000"/>
<g>
	<polygon style="opacity:0.26;fill:#29A9E1;" points="740.021,2388.258 1219.669,2070.725 746.13,1748.514 744.501,1919.112 
		0,1918.679 0,2240.974 741.418,2242.031 	"/>
	<polygon style="opacity:0.26;fill:#29A9E1;" points="935.742,968.926 1415.39,653.393 941.85,329.181 940.222,499.779 0,497.203 
		0,821.929 937.138,822.698 	"/>
	<polygon style="opacity:0.26;fill:#29A9E1;" points="1425.606,1729.747 1905.254,1412.214 1431.714,1090.002 1430.085,1260.601 
		0,1256.346 0,1584.336 1427.002,1583.52 	"/>
</g>
<g style="opacity:0.9;">
	<path style="fill:#FFFFFF;" d="M161.487,2433h289.897c0,0,22.492-77.473-22.492-79.972s-44.984-2.499-44.984-2.499
		s19.993-57.48-12.496-62.478c-32.488-4.998-69.975-22.492-74.973,27.49c0,0-54.981-24.991-69.975-7.497
		c-14.995,17.494-12.496,62.478-12.496,62.478S148.991,2343.032,161.487,2433z"/>
	<path style="fill:#FFFFFF;" d="M2579.003,2235.04h289.897c0,0,22.492-77.473-22.492-79.972
		c-44.984-2.499-44.984-2.499-44.984-2.499s19.993-57.48-12.496-62.478c-32.489-4.998-69.975-22.492-74.973,27.49
		c0,0-54.98-24.991-69.975-7.498c-14.995,17.494-12.496,62.478-12.496,62.478S2566.508,2145.072,2579.003,2235.04z"/>
	<path style="fill:#FFFFFF;" d="M89.041,1869.113h206.382c0,0,16.012-55.154-16.012-56.933c-32.025-1.779-32.025-1.779-32.025-1.779
		s14.233-40.921-8.896-44.479c-23.129-3.558-49.816-16.012-53.375,19.571c0,0-39.142-17.792-49.817-5.337
		c-10.675,12.454-8.896,44.479-8.896,44.479S80.146,1805.063,89.041,1869.113z"/>
	<path style="fill:#FFFFFF;" d="M2727.008,1750.012h133.146c0,0,10.33-35.582-10.33-36.73c-20.661-1.148-20.661-1.148-20.661-1.148
		s9.183-26.4-5.739-28.695c-14.921-2.296-32.139-10.33-34.434,12.626c0,0-25.252-11.478-32.139-3.443
		c-6.887,8.035-5.739,28.695-5.739,28.695S2721.269,1708.691,2727.008,1750.012z"/>
	<path style="fill:#FFFFFF;" d="M1525.642,2301.471h454.704c0,0,35.279-121.516-35.279-125.436
		c-70.558-3.92-70.558-3.92-70.558-3.92s31.359-90.157-19.599-97.997c-50.958-7.84-109.756-35.279-117.596,43.119
		c0,0-86.237-39.199-109.756-11.76c-23.519,27.439-19.599,97.997-19.599,97.997S1506.042,2160.356,1525.642,2301.471z"/>
	<path style="fill:#FFFFFF;" d="M1342.756,1903.539h138.823c0,0,10.771-37.099-10.771-38.296
		c-21.542-1.197-21.542-1.197-21.542-1.197s9.574-27.525-5.984-29.919c-15.558-2.394-33.509-10.771-35.903,13.164
		c0,0-26.328-11.967-33.509-3.59c-7.181,8.377-5.984,29.919-5.984,29.919S1336.772,1860.456,1342.756,1903.539z"/>
	<path style="fill:#FFFFFF;" d="M688.887,1717.576h138.823c0,0,10.771-37.099-10.771-38.296
		c-21.542-1.197-21.542-1.197-21.542-1.197s9.574-27.525-5.984-29.919c-15.558-2.394-33.509-10.771-35.902,13.164
		c0,0-26.328-11.968-33.509-3.59c-7.18,8.377-5.984,29.919-5.984,29.919S682.903,1674.493,688.887,1717.576z"/>
</g>
<linearGradient id="SVGID_1_" gradientUnits="userSpaceOnUse" x1="2691.6936" y1="226.7384" x2="2673.6958" y2="2614.2827">
	<stop  offset="0" style="stop-color:#1B75BB"/>
	<stop  offset="0.1207" style="stop-color:#1E84C6"/>
	<stop  offset="0.3345" style="stop-color:#26A9E0"/>
	<stop  offset="0.4334" style="stop-color:#2793C8"/>
	<stop  offset="0.6895" style="stop-color:#2A6090"/>
	<stop  offset="0.88" style="stop-color:#2B406D"/>
	<stop  offset="0.9823" style="stop-color:#2C3460"/>
</linearGradient>
<polygon style="fill:url(#SVGID_1_);" points="2365.996,75.646 2999.969,75.646 2999.969,2689 2365.996,2686.98 "/>
<g>
	<path style="fill:#FFFFFF;" d="M668.721,2049H645v-23.721c0-2.965-2.426-5.391-5.391-5.391c-2.965,0-5.391,2.426-5.391,5.391V2049
		h-23.721c-2.965,0-5.391,2.426-5.391,5.391s2.426,5.391,5.391,5.391h23.721v23.721c0,2.965,2.426,5.391,5.391,5.391
		c2.965,0,5.391-2.426,5.391-5.391v-23.721h23.721c2.965,0,5.391-2.426,5.391-5.391S671.686,2049,668.721,2049z"/>
	<path style="fill:#FFFFFF;" d="M327.223,169h-23.721v-23.721c0-2.965-2.426-5.391-5.391-5.391c-2.965,0-5.391,2.426-5.391,5.391
		V169H269c-2.965,0-5.391,2.426-5.391,5.391c0,2.965,2.426,5.391,5.391,5.391h23.721v23.721c0,2.965,2.426,5.391,5.391,5.391
		c2.965,0,5.391-2.426,5.391-5.391v-23.721h23.721c2.965,0,5.391-2.426,5.391-5.391C332.614,171.426,330.188,169,327.223,169z"/>
	<path style="fill:#FFFFFF;" d="M1654.877,522.791h-17.791V505c0-2.224-1.819-4.043-4.043-4.043c-2.224,0-4.043,1.819-4.043,4.043
		v17.791h-17.791c-2.224,0-4.043,1.819-4.043,4.043s1.819,4.043,4.043,4.043H1629v17.791c0,2.224,1.819,4.043,4.043,4.043
		c2.224,0,4.043-1.819,4.043-4.043v-17.791h17.791c2.224,0,4.043-1.819,4.043-4.043S1657.101,522.791,1654.877,522.791z"/>
	<path style="fill:#FFFFFF;" d="M1064.668,296.913h-17.791v-17.79c0-2.224-1.819-4.043-4.043-4.043
		c-2.224,0-4.043,1.819-4.043,4.043v17.79H1021c-2.224,0-4.043,1.82-4.043,4.043c0,2.224,1.819,4.043,4.043,4.043h17.791v17.79
		c0,2.224,1.819,4.043,4.043,4.043c2.224,0,4.043-1.819,4.043-4.043V305h17.791c2.224,0,4.043-1.819,4.043-4.043
		C1068.711,298.733,1066.891,296.913,1064.668,296.913z"/>
	<path style="fill:#FFFFFF;" d="M902.791,722.791H885V705c0-2.224-1.82-4.043-4.043-4.043c-2.224,0-4.043,1.819-4.043,4.043v17.791
		h-17.79c-2.224,0-4.043,1.819-4.043,4.043s1.82,4.043,4.043,4.043h17.79v17.791c0,2.224,1.82,4.043,4.043,4.043
		c2.224,0,4.043-1.819,4.043-4.043v-17.791h17.791c2.224,0,4.043-1.819,4.043-4.043S905.014,722.791,902.791,722.791z"/>
	<path style="fill:#FFFFFF;" d="M2699.004,2783.104h-17.791v-17.791c0-2.224-1.82-4.043-4.043-4.043
		c-2.224,0-4.043,1.82-4.043,4.043v17.791h-17.791c-2.224,0-4.043,1.819-4.043,4.043s1.819,4.043,4.043,4.043h17.791v17.791
		c0,2.224,1.82,4.043,4.043,4.043c2.224,0,4.043-1.82,4.043-4.043v-17.791h17.791c2.224,0,4.043-1.819,4.043-4.043
		S2701.228,2783.104,2699.004,2783.104z"/>
	<path style="fill:#FFFFFF;" d="M1451.254,989.257h-17.791v-17.791c0-2.224-1.819-4.043-4.043-4.043
		c-2.224,0-4.043,1.82-4.043,4.043v17.791h-17.791c-2.224,0-4.043,1.82-4.043,4.043c0,2.224,1.82,4.043,4.043,4.043h17.791v17.79
		c0,2.224,1.819,4.043,4.043,4.043c2.224,0,4.043-1.82,4.043-4.043v-17.79h17.791c2.224,0,4.043-1.82,4.043-4.043
		C1455.297,991.077,1453.478,989.257,1451.254,989.257z"/>
	<path style="fill:#FFFFFF;" d="M1862.791,1258.791H1845V1241c0-2.224-1.819-4.043-4.043-4.043c-2.224,0-4.043,1.82-4.043,4.043
		v17.791h-17.791c-2.224,0-4.043,1.819-4.043,4.043c0,2.224,1.819,4.043,4.043,4.043h17.791v17.791c0,2.224,1.819,4.043,4.043,4.043
		c2.224,0,4.043-1.82,4.043-4.043v-17.791h17.791c2.224,0,4.043-1.819,4.043-4.043
		C1866.834,1260.61,1865.014,1258.791,1862.791,1258.791z"/>
	<path style="fill:#FFFFFF;" d="M2116.915,2639.133h-17.791v-17.791c0-2.224-1.82-4.043-4.043-4.043
		c-2.224,0-4.043,1.82-4.043,4.043v17.791h-17.79c-2.224,0-4.043,1.819-4.043,4.043s1.819,4.043,4.043,4.043h17.79v17.791
		c0,2.224,1.82,4.043,4.043,4.043c2.224,0,4.043-1.819,4.043-4.043v-17.791h17.791c2.224,0,4.043-1.819,4.043-4.043
		S2119.138,2639.133,2116.915,2639.133z"/>
	<path style="fill:#FFFFFF;" d="M1607.223,1703.32h-17.791v-17.791c0-2.224-1.82-4.043-4.043-4.043s-4.043,1.819-4.043,4.043v17.791
		h-17.79c-2.224,0-4.043,1.819-4.043,4.043c0,2.224,1.819,4.043,4.043,4.043h17.79v17.791c0,2.224,1.82,4.043,4.043,4.043
		s4.043-1.82,4.043-4.043v-17.791h17.791c2.224,0,4.043-1.819,4.043-4.043C1611.266,1705.14,1609.446,1703.32,1607.223,1703.32z"/>
	<path style="fill:#FFFFFF;" d="M2049.046,173.626h-17.79v-17.79c0-2.224-1.819-4.043-4.043-4.043s-4.043,1.819-4.043,4.043v17.79
		h-17.79c-2.224,0-4.043,1.819-4.043,4.043s1.819,4.043,4.043,4.043h17.79v17.79c0,2.224,1.819,4.043,4.043,4.043
		s4.043-1.819,4.043-4.043v-17.79h17.79c2.224,0,4.043-1.82,4.043-4.043S2051.27,173.626,2049.046,173.626z"/>
	<path style="fill:#FFFFFF;" d="M384.668,969h-17.79v-17.791c0-2.224-1.819-4.043-4.043-4.043c-2.224,0-4.043,1.82-4.043,4.043V969
		H341c-2.224,0-4.043,1.82-4.043,4.043c0,2.224,1.82,4.043,4.043,4.043h17.79v17.79c0,2.224,1.82,4.043,4.043,4.043
		c2.224,0,4.043-1.82,4.043-4.043v-17.79h17.79c2.224,0,4.043-1.82,4.043-4.043C388.711,970.82,386.891,969,384.668,969z"/>
</g>
<g>
	<ellipse style="fill:#FFFFFF;" cx="2365.996" cy="1381.313" rx="414.004" ry="1305.667"/>
	<ellipse style="fill:#1B75BB;" cx="2326.224" cy="1381.313" rx="343.256" ry="1139.601"/>
	<ellipse style="fill:#FFFFFF;" cx="2288.359" cy="1381.313" rx="268.312" ry="964.803"/>
	<ellipse style="fill:#1B75BB;" cx="2270.247" cy="1381.313" rx="210.69" ry="807.751"/>
	<ellipse style="fill:#FFFFFF;" cx="2244.028" cy="1381.313" rx="139.806" ry="585.138"/>
	<ellipse style="fill:#1B75BB;" cx="2215.884" cy="1381.313" rx="73.869" ry="309.17"/>
	<path style="opacity:0.25;fill:#26A9E0;" d="M2443.43,98.46c2.112,5.767,4.137,11.584,6.051,17.466
		c40.572,77.224,59.175,160.445,55.809,249.661c0.005,15.613,0.096,31.225,0.275,46.837c1.459,127.262,8.433,254.364,13.879,381.494
		c5.371,125.38,9.311,250.98,4.545,376.448c-0.501,13.191-1.014,26.38-2.224,39.529c-6.32,68.679-16.058,137.11-27.391,205.136
		c-3.679,22.086-9.037,43.901-16.118,65.145c-1.801,5.402-3.714,10.768-5.738,16.09c-21.429,56.344-49.109,117.44-70.516,167.767
		c-4.163,9.787-8.635,19.431-13.546,28.868c-9.541,18.33-20.573,35.893-33.073,52.352c-36.17,47.625-71.818,95.793-109.878,141.958
		c-3.191,3.87-6.467,7.67-9.827,11.395c-6.645,7.365-13.619,14.434-20.909,21.161c-3.608,3.33-7.293,6.576-11.053,9.733
		c-45.683,38.355-94.451,73.744-141.525,109.662c-7.535,5.75-15.293,11.19-23.326,16.223c-7.975,4.996-16.192,9.607-24.62,13.795
		c-0.061,0.03-0.122,0.059-0.182,0.089c73.032,370.809,203.339,617.71,351.934,617.71c228.648,0,414.004-584.567,414.004-1305.667
		C2780,743.678,2635.068,212.813,2443.43,98.46z"/>
</g>
<g>
	<g>
		<g>
			<path style="fill:#CDD0D7;" d="M1317.427,1937.378c0,0,120.106-99.472,139.19-129.657
				c19.084-30.186,55.478-258.572,55.478-258.572s-47.752-11.229-57.568,6.09l-62.426,229.621l-94.256,43.551
				C1297.845,1828.411,1278.581,1896.892,1317.427,1937.378z"/>
		</g>
		<g>
			<path style="fill:#C5C7CF;" d="M1450.853,1674.298c4.101,30.516,8.201,61.032,12.301,91.548
				c0.345,9.145,0.251,18.171-0.273,27.079c19.807-59.241,49.214-243.776,49.214-243.776s-47.752-11.229-57.568,6.09l-19.916,73.255
				C1440.993,1643.197,1446.412,1658.462,1450.853,1674.298z"/>
		</g>
		<path style="fill:#EE9E78;" d="M1463.204,1549.937l4.547-17.97c0,0-7.57-9.176-9.24-18.869
			c-1.67-9.693-13.434-31.621-13.434-31.621s5.182-13.369,12.334-6.617c7.152,6.753,28.327,5.1,36.849,11.117
			c8.523,6.017,23.598-2.07,33.591,6.688c9.993,8.758,11.246,16.028,4.593,26.656c-6.653,10.628-20.04,16.928-20.04,16.928
			l-6.957,23.061c-1.845,6.114-7.877,9.965-14.2,9.064l-17.334-2.469C1466.308,1564.823,1461.319,1557.385,1463.204,1549.937z"/>
	</g>
	<path style="fill:#BABABE;" d="M1204.298,1780.87c0,0-5.51-8.027,8.791-7.745c14.301,0.283,69.193,18.285,72.199,23.248
		c3.006,4.963,14.884,14.016,2.229,23.799C1274.861,1829.955,1221.869,1811.45,1204.298,1780.87z"/>
	<g>
		<g>
			<path style="fill:#DF8867;" d="M1217.04,1691.771c0,0,4.261,73.824-1.717,89.364c-5.978,15.54-39.268,25.377-39.268,25.377
				s63.281,56.32,90.906,44.441c27.625-11.879,37.079-18.26,37.079-18.26s-20.046-4.967-21.774-16.885
				c-1.728-11.918,11.338-111.875,11.338-111.875L1217.04,1691.771z"/>
			<path style="fill:#EE9E78;" d="M1344.555,1653.446c0,0,3.21,45.23,1.479,61.257c-1.731,16.028-32.288,45.515-40.222,51.149
				c-7.933,5.634-21.363,5.045-21.363,5.045s-45.023-20.989-52.665-31.14c-7.642-10.15-24.282-55.968-24.282-55.968
				s-20.433-59.48-11.502-76.726c8.931-17.246,36.636-54.833,77.16-51.678c40.524,3.155,53.587,5.951,60.806,35.484
				C1337.144,1603.869,1344.555,1653.446,1344.555,1653.446z"/>
			<path style="fill:#31141E;" d="M1331.735,1609.534l-26.336,16.484c0,0-3.199-0.092-3.578-4.044
				c-0.379-3.952,16.267-17.512,21.442-17.61C1328.438,1604.267,1332.298,1607.087,1331.735,1609.534z"/>
			<path style="fill:#31141E;" d="M1234.022,1635.473l32.111-14.329c0,0,1.934-3.063-1.539-5.914
				c-3.473-2.851-26.719,4.223-30.078,9.022C1231.156,1629.051,1231.369,1634.457,1234.022,1635.473z"/>
			<path style="fill:#2B203D;" d="M1318.188,1633.572c-0.569,5.617,2.222,10.5,6.234,10.907s7.726-3.817,8.295-9.434
				c0.569-5.617-2.222-10.5-6.234-10.907C1322.471,1623.732,1318.757,1627.955,1318.188,1633.572z"/>
			<path style="fill:#2B203D;" d="M1259.325,1641.952c-0.569,5.617,2.222,10.5,6.234,10.907c4.012,0.406,7.726-3.817,8.295-9.434
				s-2.222-10.5-6.234-10.907S1259.894,1636.334,1259.325,1641.952z"/>
			<g>
				<path style="fill:#EF7A6D;" d="M1294.398,1696.916c3.701-1.282,8.066-3.172,8.981-6.434c0.719-2.562-0.815-5.384-4.69-8.627
					c-6.738-5.638-7.434-39.758-7.134-52.429l-2.909,0.095c-0.002,0.115-0.264,11.704,0.535,24.025
					c1.088,16.778,3.578,26.908,7.401,30.107c3.098,2.593,4.433,4.744,3.969,6.396c-0.452,1.613-2.714,3.073-7.118,4.6
					L1294.398,1696.916z"/>
			</g>
			<path style="fill:#212A48;" d="M1301.172,2151.665c0,0,207.058,67.564,229.514,90.455s112.088,245.701,112.088,245.701
				s0.848,50.694-32.521,53.042c-33.369,2.348-37.603-1.161-37.603-1.161l-124.501-203.137c0,0-121.014-65.985-158.061-69.541
				c-37.047-3.556-17.055,161.654-6.949,215.317c6.422,34.104,42.497,205.56,58.436,281.132
				c4.467,21.181-5.794,42.729-25.053,52.613l-2.509,1.288c-26.745,13.727-59.376-0.226-67.94-29.042
				c-26.302-88.499-74.356-256.986-74.325-306.524c0.038-59.394-64.635-114.784-83.614-269.273
				c-3.599-29.292,31.668-77.16,31.668-77.16L1301.172,2151.665z"/>
			<path style="fill:#C0272D;" d="M1314.731,1706.434l-53.52,7.575c0,0-5.516,2.415,4.829,11.032
				c10.345,8.617,40.095,0.621,40.095,0.621S1318.12,1717.709,1314.731,1706.434z"/>
			<path style="fill:#FFFFFF;" d="M1314.59,1705.6l-53.379,8.409c0,0-5.657,1.581,3.701,4.363c9.357,2.782,39.39-3.547,39.39-3.547
				S1316.85,1710.207,1314.59,1705.6z"/>
			<path style="fill:#3D1623;" d="M1199.647,1676.754c0,0,14.864-8.44,10.744-24.035s-4.208-51.127-0.62-56.178
				c3.589-5.051,90.248-9.347,116.022-23.336l14.287,49.422l-5.305-57.607c0,0,12.228-6.513-0.288-19.206
				c-12.516-12.693-29.861-36.418-68.738-29.84c-38.877,6.579-87.102,19.183-101.214,40.825c-14.111,21.642-32.83,24.81-32.83,24.81
				l17.079,13.402c0,0,15.506,56.621,30.558,75.55L1199.647,1676.754z"/>
			<path style="fill:#31141E;" d="M1164.537,1556.8c14.111-21.642,62.336-34.246,101.214-40.825
				c38.877-6.579,56.222,17.146,68.738,29.84c12.516,12.693,0.288,19.206,0.288,19.206l0.063,0.438
				c-3.409,2.312-6.37,5.16-8.813,8.41l-0.232-0.662c-25.774,13.989-112.433,18.285-116.022,23.336
				c-0.088,0.124-0.172,0.28-0.255,0.44c-8.021-5.23-17.93-7.674-27.359-6.078c-13.195,2.233-23.081,10.894-27.967,22.095
				c-3.344-10.469-5.403-17.986-5.403-17.986l-17.079-13.402C1131.707,1581.61,1150.426,1578.442,1164.537,1556.8z"/>
			<path style="fill:#262727;" d="M1301.172,2151.665c0,0-2.48,22.254-28.609,32.567c-26.129,10.313-63.222,13.527-81.605,7.07
				c-18.383-6.457-70.462-40.178-71.586-56.467l0.43,0.538L1301.172,2151.665z"/>
			
				<rect x="1173.6" y="2162.024" transform="matrix(-0.944 -0.33 0.33 -0.944 1571.9645 4618.6299)" style="fill:#212A4E;" width="8.762" height="27.747"/>
			
				<rect x="1257.137" y="2163.985" transform="matrix(-0.9521 0.3057 -0.3057 -0.9521 3128.3567 3865.8779)" style="fill:#212A4E;" width="8.762" height="27.747"/>
			
				<rect x="1147.156" y="2148.791" transform="matrix(-0.8488 -0.5287 0.5287 -0.8488 985.6608 4607.1768)" style="fill:#212A4E;" width="8.762" height="27.747"/>
			<g>
				<path style="fill:#643530;" d="M1613.56,2487.029c0,0,104.398,42.759,138.528,29.494c0,0,41.355,4.664,38.211,29.714
					c-3.144,25.051-27.34,41.668-45.269,48.894c-17.929,7.226-105.387-9.015-105.387-9.015l-9.391-6.268l0.75,12.203l-28.507-0.77
					l-38.295-77.983L1613.56,2487.029z"/>
				<g>
					<g>
						<path style="fill:#3F1D1B;" d="M1623.778,2497.203c10.258,0.548,20.261-2.322,30.406-3.36
							c5.07-0.519,10.201-0.735,15.284-0.253c2.565,0.243,17.705,2.468,16.23,6.673c-0.926,2.639-10.074,3.631-12.906,4.098
							c-5.7,0.94-11.609,1.247-17.312,0.147c-9.019-1.74-16.241-8.111-25.413-9.21c-1.286-0.154-1.988,1.749-1.061,2.561
							c4.946,4.328,9.056,9.411,12.037,15.286c1.564,3.082,2.803,6.325,3.695,9.664c0.648,2.428,3.692,10.794-1.358,8.695
							c-2.347-0.976-5.673-6.672-7.043-8.578c-1.915-2.666-3.683-5.44-5.296-8.299c-3.445-6.104-6.082-12.567-8.057-19.286
							c-0.544-1.848-3.44-1.062-2.893,0.798c2.666,9.068,6.556,17.716,11.791,25.599c2.482,3.738,5.23,7.371,8.268,10.677
							c1.619,1.761,4.175,4.412,6.898,3.375c5.466-2.08,0.24-15.444-1.083-18.887c-3.152-8.209-8.23-15.381-14.838-21.164
							c-0.354,0.853-0.707,1.707-1.061,2.561c6.604,0.792,11.946,4.807,18.003,7.18c5.492,2.152,11.427,2.915,17.302,2.682
							c5.982-0.237,11.909-1.444,17.647-3.103c2.632-0.761,6.37-1.286,6.229-4.718c-0.377-9.187-19.002-9.953-25.139-10.013
							c-13.579-0.133-26.797,4.6-40.331,3.877C1621.848,2494.1,1621.854,2497.1,1623.778,2497.203L1623.778,2497.203z"/>
					</g>
				</g>
			</g>
			<g>
				<path style="fill:#643530;" d="M1320.088,2793.995c0,0,92.846,64.087,129.021,58.424c0,0,39.402,13.396,30.977,37.195
					c-8.426,23.799-35.615,34.861-54.674,38.087s-101.024-31.333-101.024-31.333l-7.835-8.13l-1.876,12.081l-27.684-6.846
					l-20.741-84.366L1320.088,2793.995z"/>
				<g>
					<g>
						<path style="fill:#3F1D1B;" d="M1327.817,2806.099c9.724,2.679,19.888,2.103,29.842,3.163
							c4.532,0.483,33.181,6.115,29.1,12.702c-1.883,3.039-10.376,1.773-13.749,1.553c-5.506-0.36-11.107-1.431-16.173-3.684
							c-8.196-3.645-13.76-11.272-22.313-14.213c-1.174-0.404-2.471,1.151-1.694,2.204c3.745,5.073,6.604,10.631,8.297,16.722
							c0.963,3.465,1.557,7.026,1.752,10.617c0.072,1.329,0.082,2.661,0.047,3.991c-0.057,2.118,0.552,3.774-1.721,4.348
							c-2.232,0.564-2.28-1.002-3.212-2.73c-0.844-1.564-1.644-3.155-2.395-4.766c-1.574-3.376-2.913-6.857-4.042-10.405
							c-2.215-6.958-3.516-14.114-4.036-21.393c-0.137-1.915-3.138-1.93-3,0c0.709,9.922,2.807,19.65,6.564,28.877
							c1.5,3.685,5.509,16.815,11.424,15.684c5.641-1.079,3.404-14.761,2.892-18.374c-1.242-8.77-4.73-16.975-9.979-24.086
							c-0.565,0.734-1.129,1.469-1.694,2.203c6.305,2.168,10.663,7.213,16.072,10.849c4.483,3.013,9.615,4.971,14.889,6.061
							c5.909,1.221,11.994,1.432,18.004,1.113c2.791-0.148,7.537,0.411,8.464-3.08c2.34-8.81-16.119-13.937-21.661-15.259
							c-13.438-3.205-27.607-1.334-40.881-4.99C1326.75,2802.692,1325.955,2805.586,1327.817,2806.099L1327.817,2806.099z"/>
					</g>
				</g>
			</g>
			
				<rect x="1286.169" y="2153.995" transform="matrix(-0.8038 0.5948 -0.5948 -0.8038 3617.4792 3142.8425)" style="fill:#212A4E;" width="8.762" height="27.747"/>
			<path style="fill:#31141E;" d="M1209.398,1651.308c6.284,0.637,12.233-0.312,17.577-2.479
				c-3.446,11.305-15.854,14.453-15.854,14.453l-17.931-11.358c-1.02-2.391-1.928-5.204-2.739-8.319
				C1195.958,1647.811,1202.519,1650.611,1209.398,1651.308z"/>
			<path style="fill:#151E39;" d="M1295.673,2544.26c-11.134,34.518-29.6,65.342-55.406,92.466
				c-8.994,10.97-18.649,20.955-28.956,29.966c12.202,44.786,24.985,88.74,34.762,121.638c8.564,28.816,41.195,42.77,67.94,29.043
				l2.509-1.288c19.259-9.885,29.52-31.432,25.053-52.613C1330.442,2710.685,1309.487,2611.125,1295.673,2544.26z"/>
			<path style="fill:#151E39;" d="M1642.774,2487.821c0,0-25.084-62.353-52.036-124.478c-15.692,19.14-34.728,35.122-57.109,47.945
				c-9.543,6.446-19.359,12.01-29.445,16.704l68.466,111.71c0,0,4.235,3.509,37.603,1.161
				C1643.622,2538.515,1642.774,2487.821,1642.774,2487.821z"/>
			<path style="fill:#EE9E78;" d="M1204.055,1663.418c0,0-7.598-14.266-19.339-4.874c-11.741,9.392-5.206,30.503,3.212,36.485
				c8.418,5.981,23.813,18.187,26.449,16.26c2.636-1.927,4.785-6.734,4.785-6.734L1204.055,1663.418z"/>
			<path style="fill:#D9DDE9;" d="M1294.288,1817.834l-35.539,34.489l-64.449-52.035l-52.921,18.905
				c-24.065,8.597-38.792,32.9-35.263,58.21c6.346,45.52,15.123,113.041,14.16,131.89c-0.917,17.955-6.535,60.397-10.727,90.433
				c-2.831,20.285,7.843,40.047,26.36,48.8c23.227,10.98,54.821,23.682,77.875,24.366c19.01,0.565,39.902-1.84,56.836-4.579
				c20.299-3.284,36.369-18.916,40.267-39.105c10.54-54.585,30.122-162.902,27.61-202.016
				c-3.417-53.189-22.443-93.708-22.443-93.708L1294.288,1817.834z"/>
			<path style="fill:#CDD0D7;" d="M1120.276,2009.293c0.165-3.224,0.044-7.877-0.301-13.597
				c17.973,23.286,40.146,40.926,66.543,52.888c25.856,17.489,54.714,27.402,86.576,29.741c15.961,1.728,31.674,1.872,47.143,0.459
				c-3.36,18.95-6.651,36.446-9.348,50.418c-3.907,20.234-20.031,35.842-40.375,39.128c-16.916,2.733-37.759,5.125-56.73,4.562
				c-23.089-0.686-54.743-13.424-77.979-24.415c-18.477-8.74-29.081-28.515-26.255-48.759
				C1113.742,2069.683,1119.359,2027.246,1120.276,2009.293z"/>
			<polygon style="fill:#BABABE;" points="1259.604,1852.173 1285.41,1844.763 1303.146,1857.025 1287.512,1825.895 			"/>
			<polygon style="fill:#D9DDE9;" points="1253.296,1855.44 1251.44,1830.298 1204.288,1774.146 1177.508,1806.66 
				1220.153,1863.824 			"/>
			<path style="fill:#D9DDE9;" d="M1282.947,1794.594l12.473,13.08c4.486,13.665,7.725,49.351,7.725,49.351l-14.991-23.711
				l-29.361,18.568C1258.795,1851.881,1288.646,1825.262,1282.947,1794.594z"/>
			<polygon style="fill:#BABABE;" points="1218.642,1850.548 1251.709,1830.722 1258.153,1852.012 1242.835,1844.427 			"/>
			
				<rect x="1177.139" y="1902.347" transform="matrix(-0.9938 -0.1107 0.1107 -0.9938 2198.4817 3935.5659)" style="fill:#CDD0D7;" width="62.796" height="8.762"/>
			<g>
				<path style="fill:#CDD0D7;" d="M1211.957,2199.611l30.07,0.084c2.784,0.008,5.069-2.264,5.077-5.049l0.041-14.701
					c0.008-2.784-2.264-5.069-5.048-5.076l-30.07-0.083c-2.784-0.008-5.069,2.264-5.076,5.048l-0.041,14.701
					C1206.901,2197.319,1209.173,2199.603,1211.957,2199.611z"/>
				<path style="fill:#262727;" d="M1213.581,2197.251l26.835,0.075c2.373,0.007,4.321-1.93,4.327-4.303l0.033-11.814
					c0.007-2.374-1.93-4.321-4.303-4.327l-26.835-0.075c-2.373-0.007-4.321,1.93-4.327,4.303l-0.033,11.814
					C1209.271,2195.297,1211.208,2197.244,1213.581,2197.251z"/>
			</g>
			<g>
				<g style="opacity:0.69;">
					<defs>
						
							<ellipse id="SVGID_00000111875554665627023500000018008171655069061249_" transform="matrix(0.1553 -0.9879 0.9879 0.1553 -501.7126 2683.6592)" style="opacity:0.69;" cx="1318.358" cy="1635.196" rx="24.007" ry="24.007"/>
					</defs>
					<clipPath id="SVGID_00000066477638418303812150000001378836446602494354_">
						<use xlink:href="#SVGID_00000111875554665627023500000018008171655069061249_"  style="overflow:visible;"/>
					</clipPath>
					
						<ellipse transform="matrix(0.1553 -0.9879 0.9879 0.1553 -501.7126 2683.6592)" style="opacity:0.43;clip-path:url(#SVGID_00000066477638418303812150000001378836446602494354_);fill:#FFFFFF;" cx="1318.358" cy="1635.196" rx="24.007" ry="24.007"/>
					
						<rect x="1293.194" y="1621.251" transform="matrix(-0.7547 -0.6561 0.6561 -0.7547 1265.2716 3723.5076)" style="opacity:0.43;clip-path:url(#SVGID_00000066477638418303812150000001378836446602494354_);fill:#FFFFFF;" width="71.22" height="7.881"/>
					
						<rect x="1285.55" y="1631.632" transform="matrix(-0.7547 -0.6561 0.6561 -0.7547 1245.7772 3734.7622)" style="opacity:0.43;clip-path:url(#SVGID_00000066477638418303812150000001378836446602494354_);fill:#FFFFFF;" width="71.22" height="5.665"/>
				</g>
				<g style="opacity:0.69;">
					<defs>
						
							<ellipse id="SVGID_00000085938698418479105240000006275485860505594515_" transform="matrix(0.989 -0.1482 0.1482 0.989 -230.0337 204.789)" style="opacity:0.69;" cx="1259.356" cy="1646.189" rx="24.007" ry="24.007"/>
					</defs>
					<clipPath id="SVGID_00000078760011566444928220000010966292688955111102_">
						<use xlink:href="#SVGID_00000085938698418479105240000006275485860505594515_"  style="overflow:visible;"/>
					</clipPath>
					
						<ellipse transform="matrix(0.989 -0.1482 0.1482 0.989 -230.0337 204.789)" style="opacity:0.43;clip-path:url(#SVGID_00000078760011566444928220000010966292688955111102_);fill:#FFFFFF;" cx="1259.356" cy="1646.189" rx="24.007" ry="24.007"/>
					
						<rect x="1234.192" y="1632.245" transform="matrix(-0.7547 -0.6561 0.6561 -0.7547 1154.5333 3704.0857)" style="opacity:0.43;clip-path:url(#SVGID_00000078760011566444928220000010966292688955111102_);fill:#FFFFFF;" width="71.22" height="7.881"/>
					
						<rect x="1226.548" y="1642.625" transform="matrix(-0.7547 -0.6561 0.6561 -0.7547 1135.0345 3715.3401)" style="opacity:0.43;clip-path:url(#SVGID_00000078760011566444928220000010966292688955111102_);fill:#FFFFFF;" width="71.22" height="5.665"/>
				</g>
				
					<ellipse transform="matrix(0.5656 -0.8247 0.8247 0.5656 -775.842 1797.6798)" style="fill:none;stroke:#402312;stroke-width:3;stroke-miterlimit:10;" cx="1318.513" cy="1635.302" rx="24.273" ry="24.274"/>
				
					<rect x="1283.329" y="1635.484" transform="matrix(-0.9831 0.1832 -0.1832 -0.9831 2856.666 3018.2966)" style="fill:#402312;" width="11.203" height="11.203"/>
				<path style="fill:#402312;" d="M1234.143,1641.933l-11.014,2.052l1.319,7.08c0,0,7.52,1.041,10.76,5.321L1234.143,1641.933z"/>
				<path style="fill:#402312;" d="M1339.559,1622.291l8.653-1.612l1.319,7.08c0,0-5.123,3.397-6.098,8.462L1339.559,1622.291z"/>
				<polygon style="fill:#8B6339;" points="1223.13,1643.985 1203.272,1642.259 1205.823,1647.21 1224.449,1651.066 				"/>
				
					<ellipse transform="matrix(0.5656 -0.8247 0.8247 0.5656 -810.3377 1752.8485)" style="fill:none;stroke:#402312;stroke-width:3;stroke-miterlimit:10;" cx="1258.71" cy="1645.631" rx="24.273" ry="24.274"/>
			</g>
		</g>
		<g>
			<path style="fill:#D9DDE9;" d="M1111.359,1923.044c0,0,84.218-131.254,93.231-165.809
				c9.013-34.556-19.645-275.277-19.645-275.277s-55.195,6.368-59.287,25.85l10.519,247.242l-54.564,64.122
				C1081.615,1819.172,1062.051,1896.27,1111.359,1923.044z"/>
		</g>
		<g>
			<path style="fill:#CDD0D7;" d="M1137.267,1579.343c27.654,27.841,49.776,58.912,66.38,93.205
				c-5.751-81.807-18.702-190.589-18.702-190.589s-55.195,6.368-59.286,25.85l2.752,64.693L1137.267,1579.343z"/>
		</g>
		<path style="fill:#EE9E78;" d="M1179.63,1491.615c0,0-2.439-25.652,3.42-32.638s3.369-27.746-2.362-29.475
			c-5.731-1.729-35.424-6.936-42.064-13.941s-14.477-55.641-14.477-55.641s-10.188-11.827-13.3-1.511c0,0-9.346-2.087-9.565,7.852
			c0,0-4.537,0.299-4.91,10.747c0,0-4.747,4.682-1.651,12.842c0,0-0.214,39.399,4.613,49.193
			c4.827,9.794,41.991,37.681,42.453,36.152c0.461-1.528-7.404,41.121-7.404,41.121S1163.179,1516.667,1179.63,1491.615z"/>
	</g>
	<g>
		
			<rect x="1660.715" y="1368.381" transform="matrix(0.9999 -0.0111 0.0111 0.9999 -15.3404 21.6011)" style="fill:#212757;" width="553.887" height="47.867"/>
		<path style="fill:#2F3A74;" d="M1511.601,1305.445c-109.289,11.471-621.433,78.704-621.433,78.704l0.174,15.653l0.092,8.279
			l0.174,15.653c0,0,513.51,55.845,623.027,64.887c81.538,6.732,265.055-19.889,353.502-33.931
			c28.442-4.515,49.271-29.201,48.951-57.997l0,0l-0.092-8.279l0,0c-0.32-28.796-21.692-53.013-50.227-56.896
			C1777.033,1319.445,1592.97,1296.905,1511.601,1305.445z"/>
		<path style="fill:#212757;" d="M1386.807,1320.289l-39.607,52.459c-37.639,38.226-81.013,66.877-130.109,85.975
			c124.944,13.19,248.928,25.968,296.544,29.899c81.538,6.732,265.055-19.89,353.502-33.931
			c28.442-4.515,49.271-29.201,48.951-57.997l-0.092-8.279c-0.32-28.796-21.692-53.013-50.227-56.896
			c-88.736-12.074-272.799-34.615-354.168-26.074C1486.973,1308.03,1441.882,1313.448,1386.807,1320.289z"/>
		<path style="fill:#F1F1F2;" d="M1553.672,1392.438c0.268,33.516-3.676,65.932-11.825,97.251
			c90.944,0.319,248.857-22.828,327.486-35.348c27.18-4.328,47.085-27.912,46.779-55.433l-0.141-12.708
			c-0.306-27.522-20.731-50.658-48.001-54.381c-78.161-10.672-234.358-30.043-325.654-28.126
			C1550.703,1331.964,1554.494,1361.543,1553.672,1392.438z"/>
		<path style="fill:#E6E7E8;" d="M1713.301,1476.454c29.479-46.082,66.457-85.664,110.941-118.741
			c9.344-9.789,19.03-19.073,29.04-27.877c-25.698-3.429-57.474-7.463-91.641-11.327c-30.554,66.468-73.735,121.991-129.553,166.562
			C1658.426,1482.766,1686.05,1479.765,1713.301,1476.454z"/>
		<g>
			<path style="fill:#212757;" d="M892.099,1404l-225.644,2.505c0,0-64.391,51.814-39.809,110.104
				c24.582,58.29,89.677,69.896,120.344,60.309c30.667-9.587,145.3-155.709,145.3-155.709L892.099,1404z"/>
			<path style="fill:#2C346B;" d="M892.097,1403.846l-225.644,2.505c0,0-65.525-50.372-42.243-109.193
				c23.282-58.821,88.103-71.87,118.975-62.966s148.721,152.444,148.721,152.444L892.097,1403.846z"/>
		</g>
	</g>
</g>
</svg>
